<?xml version="1.0" encoding="UTF-8"?>
<svg id="Layer_1" data-name="Layer 1" xmlns="http://www.w3.org/2000/svg" viewBox="0 0 16.17 14.74">
  <path d="M.75,7.37c0-2.03.72-3.76,2.15-5.19S6.05.03,8.08.03s3.76.72,5.19,2.15,2.15,3.16,2.15,5.19-.72,3.76-2.15,5.19-3.16,2.15-5.19,2.15-3.76-.72-5.19-2.15S.75,9.4.75,7.37ZM11.67,7.35c0-1.43-.33-2.59-1-3.48-.66-.89-1.53-1.34-2.59-1.34s-1.93.45-2.59,1.34c-.66.9-.99,2.06-.99,3.49s.33,2.58,1,3.47c.66.89,1.52,1.34,2.58,1.34s1.93-.45,2.59-1.34c.66-.89,1-2.06,1-3.49ZM9.71,7.35c0,2.68-.54,4.03-1.63,4.03s-1.61-1.34-1.61-4.03.54-4.02,1.63-4.02,1.61,1.34,1.61,4.02Z"/>
</svg>