<?xml version="1.0" encoding="UTF-8"?>
<svg id="Layer_1" data-name="Layer 1" xmlns="http://www.w3.org/2000/svg" viewBox="0 0 16.17 14.74">
  <path d="M.75,7.37c0-2.03.72-3.76,2.15-5.19S6.05.03,8.08.03s3.76.72,5.19,2.15,2.15,3.16,2.15,5.19-.72,3.76-2.15,5.19-3.16,2.15-5.19,2.15-3.76-.72-5.19-2.15S.75,9.4.75,7.37ZM9.07,2.56l-3.46.23v.84h.12c.78,0,1.22.02,1.33.09.11.07.16.33.16.8v5.44c0,.49-.07.78-.2.87-.14.09-.61.16-1.41.2v.8h5.09v-.8h-.11l-.71-.03c-.35,0-.57-.06-.66-.18-.09-.12-.14-.41-.14-.86V2.56Z"/>
</svg>