<?xml version="1.0" encoding="UTF-8"?>
<svg id="Layer_1" data-name="Layer 1" xmlns="http://www.w3.org/2000/svg" viewBox="0 0 16.17 14.74">
  <path d="M.75,7.37c0-2.03.72-3.76,2.15-5.19S6.05.03,8.08.03s3.76.72,5.19,2.15,2.15,3.16,2.15,5.19-.72,3.76-2.15,5.19-3.16,2.15-5.19,2.15-3.76-.72-5.19-2.15S.75,9.4.75,7.37ZM5.09,11.77h6.18v-1.73h-4.37c.05-.46.42-.95,1.09-1.47l.53-.4c.12-.1.41-.29.87-.58,1.28-.78,1.91-1.68,1.91-2.71,0-.78-.3-1.4-.89-1.85-.59-.46-1.39-.68-2.39-.68-.42,0-.86.04-1.3.12-.45.08-.9.21-1.37.37v1.9h.83l.02-.23c.03-.58.12-.92.29-1.02.32-.2.68-.31,1.08-.31,1.19,0,1.78.59,1.78,1.77,0,.95-.6,1.94-1.79,2.96l-.38.33c-1.05.91-1.74,1.82-2.07,2.75v.76Z"/>
</svg>