<?xml version="1.0" encoding="UTF-8"?>
<svg id="Layer_1" data-name="Layer 1" xmlns="http://www.w3.org/2000/svg" viewBox="0 0 16.17 14.74">
  <path d="M.75,7.37c0-2.03.72-3.76,2.15-5.19S6.05.03,8.08.03s3.76.72,5.19,2.15,2.15,3.16,2.15,5.19-.72,3.76-2.15,5.19-3.16,2.15-5.19,2.15-3.76-.72-5.19-2.15S.75,9.4.75,7.37ZM5.45,11.85c.34.11.72.19,1.14.24.42.06.87.08,1.37.08,1.1,0,1.96-.24,2.59-.72.63-.48.94-1.15.94-2,0-.58-.18-1.1-.55-1.56-.36-.46-.83-.76-1.41-.9,1.1-.4,1.65-1.15,1.65-2.23,0-.75-.26-1.31-.78-1.68-.52-.37-1.31-.56-2.36-.56-.43,0-.86.03-1.28.1-.42.07-.84.17-1.25.31v1.89h.88v-.24c.05-.58.15-.92.32-1,.33-.17.67-.26,1.03-.26,1.06,0,1.59.55,1.59,1.64s-.83,1.72-2.5,1.72h-.54v.8h.63c1.77,0,2.66.68,2.66,2.04,0,.56-.17,1-.51,1.34s-.78.51-1.32.51c-.41,0-.79-.1-1.15-.3-.17-.09-.27-.39-.31-.92l-.02-.24h-.83v1.93Z"/>
</svg>