<?xml version="1.0" encoding="UTF-8"?>
<svg id="Layer_1" data-name="Layer 1" xmlns="http://www.w3.org/2000/svg" viewBox="0 0 16.17 14.74">
  <path d="M.75,7.37c0-2.03.72-3.76,2.15-5.19S6.05.03,8.08.03s3.76.72,5.19,2.15,2.15,3.16,2.15,5.19-.72,3.76-2.15,5.19-3.16,2.15-5.19,2.15-3.76-.72-5.19-2.15S.75,9.4.75,7.37ZM8.15,9.34v.56c0,.54-.03.84-.08.91-.06.07-.33.12-.81.15h-.11v.81h3.55v-.8h-.11c-.47-.04-.74-.1-.8-.18-.06-.08-.09-.38-.09-.89v-.56h1.08v-1.51h-1.08V2.46h-1.33l-4.61,5.68v1.2h4.39ZM4.85,7.84l3.3-4.04v4.04h-3.3Z"/>
</svg>