<?xml version="1.0" encoding="UTF-8"?>
<svg id="Layer_1" data-name="Layer 1" xmlns="http://www.w3.org/2000/svg" viewBox="0 0 16.17 14.74">
  <path d="M.75,7.37c0-2.03.72-3.76,2.15-5.19S6.05.03,8.08.03s3.76.72,5.19,2.15,2.15,3.16,2.15,5.19-.72,3.76-2.15,5.19-3.16,2.15-5.19,2.15-3.76-.72-5.19-2.15S.75,9.4.75,7.37ZM5.55,11.89c.4.09.76.16,1.1.21.33.05.64.07.92.07,1.13,0,2.02-.26,2.66-.77.64-.51.96-1.22.96-2.12,0-1.98-1.38-2.96-4.13-2.96-.11,0-.3,0-.58,0v-1.95h4.53v-1.63h-5.28v4.44c.24-.03.46-.04.64-.04,1.9,0,2.86.76,2.86,2.27,0,1.3-.56,1.94-1.67,1.94-.42,0-.71-.08-.87-.23s-.25-.46-.28-.92v-.23h-.85v1.89Z"/>
</svg>