<?xml version="1.0" encoding="UTF-8"?>
<svg id="Layer_1" data-name="Layer 1" xmlns="http://www.w3.org/2000/svg" viewBox="0 0 16.17 14.74">
  <path d="M.75,7.37c0-2.03.72-3.76,2.15-5.19S6.05.03,8.08.03s3.76.72,5.19,2.15,2.15,3.16,2.15,5.19-.72,3.76-2.15,5.19-3.16,2.15-5.19,2.15-3.76-.72-5.19-2.15S.75,9.4.75,7.37ZM6.41,7.02v-.25c0-2.29.77-3.44,2.31-3.44.4,0,.77.09,1.12.27.17.09.27.39.3.92l.02.23h.84v-1.85c-.39-.13-.79-.22-1.21-.28s-.85-.09-1.29-.09c-1.22,0-2.2.46-2.93,1.37-.73.91-1.09,2.13-1.09,3.66s.32,2.59.97,3.4,1.54,1.22,2.7,1.22c.97,0,1.77-.31,2.4-.94.63-.62.95-1.42.95-2.38,0-.85-.27-1.54-.81-2.09-.54-.55-1.23-.82-2.06-.82-.93,0-1.66.36-2.21,1.08ZM6.46,8.62c0-1.12.53-1.68,1.6-1.68s1.57.75,1.57,2.25-.47,2.18-1.41,2.18c-1.17,0-1.76-.92-1.76-2.76Z"/>
</svg>