<?xml version="1.0" encoding="UTF-8"?>
<svg id="Layer_1" data-name="Layer 1" xmlns="http://www.w3.org/2000/svg" viewBox="0 0 16.17 14.74">
  <path d="M.75,7.37c0-2.03.72-3.76,2.15-5.19S6.05.03,8.08.03s3.76.72,5.19,2.15,2.15,3.16,2.15,5.19-.72,3.76-2.15,5.19-3.16,2.15-5.19,2.15-3.76-.72-5.19-2.15S.75,9.4.75,7.37ZM6.45,7.11c-1.19.64-1.78,1.48-1.78,2.53,0,.78.3,1.4.91,1.85.61.46,1.43.68,2.46.68s1.84-.25,2.48-.76c.63-.51.95-1.18.95-2,0-1.06-.67-1.95-2.02-2.65,1.06-.58,1.6-1.29,1.6-2.13,0-.63-.26-1.14-.77-1.53-.52-.38-1.2-.58-2.06-.58-.91,0-1.64.22-2.2.67-.56.45-.84,1.04-.84,1.76,0,.83.43,1.54,1.28,2.14ZM7.03,7.54l.8.43c.87.46,1.41.79,1.63,1.01.22.22.33.52.33.9,0,.44-.16.79-.47,1.08-.31.28-.72.42-1.2.42-1.15,0-1.73-.64-1.73-1.93,0-.63.21-1.27.63-1.9ZM8.71,6.38l-.52-.28c-.99-.53-1.49-1.05-1.49-1.56,0-.34.14-.63.41-.86.27-.23.6-.35,1-.35.89,0,1.34.47,1.34,1.42,0,.59-.25,1.13-.74,1.63Z"/>
</svg>