<?xml version="1.0" encoding="UTF-8"?>
<svg id="Layer_1" data-name="Layer 1" xmlns="http://www.w3.org/2000/svg" viewBox="0 0 16.17 14.74">
  <path d="M.75,7.37c0-2.03.72-3.76,2.15-5.19S6.05.03,8.08.03s3.76.72,5.19,2.15,2.15,3.16,2.15,5.19-.72,3.76-2.15,5.19-3.16,2.15-5.19,2.15-3.76-.72-5.19-2.15S.75,9.4.75,7.37ZM9.85,7.69v.25c0,2.29-.77,3.44-2.31,3.44-.39,0-.76-.09-1.11-.27-.17-.09-.27-.39-.31-.91v-.24h-.85v1.85c.4.12.81.21,1.22.27.41.06.83.09,1.26.09,1.23,0,2.21-.45,2.93-1.36.72-.91,1.09-2.13,1.09-3.66,0-1.45-.32-2.58-.97-3.4-.64-.82-1.54-1.22-2.68-1.22-.97,0-1.76.31-2.39.94-.63.62-.95,1.42-.95,2.38,0,.85.27,1.54.81,2.09.54.55,1.22.82,2.05.82.93,0,1.67-.36,2.21-1.08ZM9.79,6.09c0,1.12-.53,1.68-1.6,1.68s-1.56-.75-1.56-2.26.47-2.17,1.41-2.17c1.16,0,1.74.92,1.74,2.76Z"/>
</svg>