<?xml version="1.0" encoding="UTF-8"?>
<svg id="Layer_1" xmlns="http://www.w3.org/2000/svg" version="1.1" viewBox="0 0 96.9 96.9">
  <!-- Generator: Adobe Illustrator 30.3.0, SVG Export Plug-In . SVG Version: 2.1.3 Build 182)  -->
  <defs>
    <style>
      .st0 {
        fill: #d63d27;
      }

      .st1 {
        fill: #fff;
      }
    </style>
  </defs>
  <g id="Layer_2">
    <g id="Layer_11" data-name="Layer_1">
      <g id="dE4CDw">
        <g>
          <path class="st1" d="M82.9,96.9c8.3,0,14-7.1,14-14.8V13c-.8-7-6.5-12.4-13.5-12.9H15.2C7.5,0,.1,5.4,0,13.6v69.7c0,6.9,6.7,13.6,13.6,13.6h69.2s0,0,0,0Z"/>
          <path class="st0" d="M82.9,96.9H13.7C6.8,96.9,0,90.2,0,83.3V13.6C0,5.5,7.5,0,15.2,0h68.2c7,.6,12.7,6,13.4,13v69c0,7.8-5.6,14.8-13.9,14.8h0Z"/>
          <path class="st1" d="M48.5,60.6l14.3,14.3,12-12.1-14.3-14.3,5.2-5.3c.4-.6.9-1,1.5-1.5l7.7-7.7-12.1-12.1-14.4,14.3-14.3-14.3-12,12,14.3,14.3-14.4,14.4,6.4,6.3,5.8,5.8,1.6-1.6,5.3-5.3,7.6-7.5h0Z"/>
          <path class="st1" d="M48.5,60.6l-7.6,7.5-5.3,5.3-1.6,1.6-5.8-5.8-6.4-6.3,14.4-14.4-14.3-14.3,12-12,14.3,14.3,14.4-14.3,12.1,12.1-7.7,7.7c-.6.4-1.1.9-1.5,1.5l-5.2,5.3,14.3,14.3-12,12.1-14.3-14.3h0Z"/>
        </g>
      </g>
    </g>
  </g>
</svg>