<?xml version="1.0" encoding="UTF-8"?>
<svg id="Layer_1" xmlns="http://www.w3.org/2000/svg" version="1.1" viewBox="0 0 96.8 96.7">
  <!-- Generator: Adobe Illustrator 30.3.0, SVG Export Plug-In . SVG Version: 2.1.3 Build 182)  -->
  <defs>
    <style>
      .st0 {
        fill: #fff;
      }

      .st1 {
        fill: #519a43;
      }
    </style>
  </defs>
  <g id="Layer_2">
    <g id="Layer_11" data-name="Layer_1">
      <g id="dE4CDw">
        <g>
          <path class="st0" d="M84,96.7c6.9-.9,12-6.2,12.8-13V13.4C96.7,6,90,0,82.8,0H13C6.2.8.9,6.1,0,12.8v70.7c.2,6.7,6.5,13.1,13.2,13.1h70.8c0,.1,0,.1,0,.1Z"/>
          <path class="st1" d="M84,96.7H13.2c-6.7-.1-13-6.5-13-13.2V12.9C.8,6.1,6.2.8,13,0h69.8c7.2,0,13.9,6,13.9,13.4v70.4c-.7,6.8-5.8,12.1-12.7,13h0Z"/>
          <path class="st0" d="M52.2,63.7l11.6-11.6,2.7-2.6,3.1-3.1,2.1-2.2,2.4-2.4,3.4-3.3,1.8-1.7,2.7-2.8-12-12-28.7,28.6-5.6-5.6-9.9-10-3.4,3.5-1.9,1.8-5,4.9-1.8,1.8,27.5,27.5,9.6-9.5,1.4-1.4h0Z"/>
          <polygon class="st0" points="52.2 63.7 50.8 65.1 41.2 74.6 13.7 47.1 15.5 45.4 20.5 40.4 22.4 38.6 25.8 35.1 35.7 45.1 41.3 50.7 70 22 81.9 34 79.2 36.8 77.5 38.5 74.1 41.8 71.7 44.2 69.6 46.4 66.6 49.4 63.8 52 52.2 63.7"/>
        </g>
      </g>
    </g>
  </g>
</svg>