<?xml version="1.0" encoding="UTF-8"?>
<svg id="Layer_1" xmlns="http://www.w3.org/2000/svg" xmlns:xlink="http://www.w3.org/1999/xlink" version="1.1" viewBox="0 0 251.8 222.8">
  <!-- Generator: Adobe Illustrator 30.3.0, SVG Export Plug-In . SVG Version: 2.1.3 Build 182)  -->
  <defs>
    <style>
      .st0 {
        fill: url(#linear-gradient1);
      }

      .st1 {
        fill: url(#linear-gradient);
      }
    </style>
    <linearGradient id="linear-gradient" x1="127.3" y1="216.5" x2="124" y2="-4.5" gradientUnits="userSpaceOnUse">
      <stop offset=".9" stop-color="#ebab3b"/>
      <stop offset=".9" stop-color="#ecac3b"/>
      <stop offset=".9" stop-color="#f5b83f"/>
      <stop offset=".9" stop-color="#fbbf41"/>
      <stop offset="1" stop-color="#fdc142"/>
    </linearGradient>
    <linearGradient id="linear-gradient1" x1="125.9" y1="222.8" x2="125.9" y2="27.9" gradientUnits="userSpaceOnUse">
      <stop offset="0" stop-color="#f5b336"/>
      <stop offset="1" stop-color="#f8e46b"/>
    </linearGradient>
  </defs>
  <path class="st1" d="M224.8,26.1h-96c-25-.9-21.2-26.1-46.7-26.1H27C12.1,0,0,12.1,0,27v19.7C0,47.8,0,48.9.2,49.9,0,51,0,52,0,53.1v140.9C0,208.9,12.1,221,27,221h197.8c14.9,0,27-12.1,27-27V53.1c0-14.9-12.1-27-27-27Z"/>
  <rect class="st0" y="27.9" width="251.8" height="194.9" rx="27" ry="27"/>
</svg>