<?xml version="1.0" encoding="UTF-8"?>
<svg id="Layer_1" data-name="Layer 1" xmlns="http://www.w3.org/2000/svg" viewBox="0 0 16.17 14.74">
  <path d="M15.44,7.37c0,2.03-.72,3.76-2.16,5.2-1.44,1.43-3.17,2.15-5.2,2.15s-3.76-.72-5.2-2.15c-1.44-1.43-2.16-3.17-2.16-5.2s.72-3.76,2.16-5.2S6.05.02,8.08.02s3.76.72,5.2,2.16,2.16,3.17,2.16,5.2ZM14.24,7.37c0-1.7-.6-3.15-1.8-4.36-1.2-1.2-2.65-1.81-4.35-1.81s-3.15.6-4.36,1.81-1.81,2.66-1.81,4.36.6,3.15,1.81,4.35c1.2,1.2,2.66,1.8,4.36,1.8s3.15-.6,4.35-1.8c1.2-1.2,1.8-2.65,1.8-4.35ZM9.59,3.58c0,.39-.15.72-.44,1-.3.28-.65.41-1.06.41s-.78-.14-1.07-.41c-.29-.28-.44-.61-.44-1s.15-.72.44-1c.29-.28.65-.41,1.07-.41s.77.14,1.06.41c.3.28.44.61.44,1ZM9.31,12.87h-2.47v-7.01h2.47v7.01Z"/>
</svg>