<?xml version="1.0" encoding="UTF-8"?>
<svg id="Layer_1" data-name="Layer 1" xmlns="http://www.w3.org/2000/svg" viewBox="0 0 16.17 14.74">
  <path d="M.83,7.36c0-.33.12-.61.35-.85.23-.24.52-.35.87-.35s.63.12.87.36c.24.24.35.52.35.84s-.12.61-.36.85c-.24.24-.53.36-.86.36s-.62-.12-.86-.35c-.24-.24-.36-.52-.36-.86ZM2.07,3.92c0-.22.08-.41.23-.56s.34-.23.56-.23.41.07.56.22c.15.15.23.34.23.57,0,.21-.07.39-.22.54s-.34.22-.57.22-.42-.08-.57-.23c-.15-.15-.22-.33-.22-.53ZM2.07,10.82c0-.26.09-.45.26-.59.17-.13.35-.2.53-.2.2,0,.38.07.55.21s.24.33.24.58c0,.22-.08.41-.23.56-.16.15-.34.22-.56.22s-.4-.08-.56-.23c-.16-.15-.23-.33-.23-.55ZM3.97,1.89c0-.21.08-.39.23-.55.15-.16.34-.24.56-.24s.4.08.56.23c.15.16.23.34.23.56,0,.18-.07.35-.2.53-.13.18-.33.26-.59.26-.22,0-.41-.08-.56-.24-.15-.16-.23-.34-.23-.55ZM3.97,12.82c0-.19.07-.37.21-.54.14-.17.33-.25.58-.25.22,0,.4.08.56.23.15.16.23.34.23.56s-.07.4-.22.56c-.15.16-.34.23-.57.23s-.42-.08-.57-.23c-.15-.15-.22-.34-.22-.56ZM3.67,7.36c0-.81.19-1.55.57-2.21.38-.66.91-1.19,1.59-1.6s1.43-.62,2.26-.62c1.2,0,2.23.43,3.11,1.3.88.87,1.32,1.91,1.32,3.12s-.43,2.23-1.3,3.11c-.87.88-1.91,1.32-3.12,1.32s-2.27-.43-3.13-1.29c-.86-.86-1.29-1.91-1.29-3.13ZM6.87,1.25c0-.32.12-.61.36-.85.24-.24.53-.36.86-.36.31,0,.59.12.83.35.25.24.37.52.37.86s-.12.61-.35.85c-.23.24-.52.35-.85.35-.37,0-.67-.12-.89-.36s-.33-.52-.33-.84ZM6.87,13.48c0-.33.11-.62.34-.86.23-.24.52-.36.88-.36.32,0,.6.12.84.35.24.24.36.53.36.87s-.12.62-.36.86-.52.36-.84.36c-.34,0-.63-.12-.87-.37-.24-.25-.35-.53-.35-.85ZM10.62,1.89c0-.22.08-.4.23-.56s.34-.23.56-.23.41.08.56.24c.15.16.22.34.22.55,0,.19-.07.37-.21.54-.14.17-.33.25-.57.25s-.43-.08-.57-.24c-.14-.16-.22-.34-.22-.55ZM10.62,12.82c0-.22.08-.4.23-.56s.34-.23.56-.23.41.08.56.24c.15.16.22.34.22.55,0,.24-.08.43-.24.58s-.34.21-.54.21c-.24,0-.43-.08-.58-.24s-.21-.34-.21-.55ZM12.52,3.92c0-.24.08-.43.24-.57.16-.15.34-.22.55-.22.22,0,.41.08.56.23s.23.34.23.56c0,.2-.07.38-.22.53-.15.15-.34.23-.57.23-.24,0-.43-.08-.58-.24s-.21-.33-.21-.52ZM12.52,10.82c0-.26.09-.45.26-.59.17-.13.35-.2.53-.2.2,0,.38.07.55.22.16.14.24.34.24.57,0,.22-.08.4-.23.55-.15.15-.34.23-.56.23-.24,0-.43-.08-.57-.24-.14-.16-.22-.34-.22-.54ZM12.89,7.36c0-.32.12-.6.35-.84.24-.24.53-.36.87-.36s.64.12.87.35c.23.24.35.52.35.85,0,.39-.13.69-.39.9-.26.21-.54.31-.83.31-.34,0-.62-.12-.86-.36-.24-.24-.36-.53-.36-.85Z"/>
</svg>