<?xml version="1.0" encoding="UTF-8"?>
<svg id="Layer_1" data-name="Layer 1" xmlns="http://www.w3.org/2000/svg" viewBox="0 0 16.17 14.74">
  <path d="M3.25,7.36c0-.32-.12-.6-.35-.84-.24-.24-.53-.36-.87-.36s-.64.12-.87.35c-.23.24-.35.52-.35.85s.12.62.36.86c.24.24.53.35.86.35s.62-.12.86-.36c.24-.24.36-.53.36-.85Z"/>
  <path d="M2.84,10.03c-.18,0-.36.07-.53.2-.17.13-.26.33-.26.59,0,.22.08.4.23.55.15.15.34.23.56.23s.4-.07.56-.22c.15-.15.23-.33.23-.56,0-.24-.08-.43-.24-.58s-.34-.21-.55-.21Z"/>
  <path d="M4.74,2.68c.26,0,.46-.09.59-.26.13-.18.2-.35.2-.53,0-.22-.08-.4-.23-.56-.16-.15-.34-.23-.56-.23s-.41.08-.56.24c-.15.16-.23.34-.23.55s.08.39.23.55c.15.16.34.24.56.24Z"/>
  <path d="M2.84,3.14c-.22,0-.41.08-.56.23s-.23.34-.23.56c0,.2.07.38.22.53.15.15.34.23.57.23s.42-.07.57-.22c.15-.15.22-.33.22-.54,0-.23-.08-.42-.23-.57-.15-.15-.34-.22-.56-.22Z"/>
  <path d="M8.07,2.45c.34,0,.62-.12.85-.35.23-.24.35-.52.35-.85s-.12-.62-.37-.86c-.25-.24-.52-.35-.83-.35-.34,0-.62.12-.86.36-.24.24-.36.53-.36.85s.11.6.33.84c.22.24.52.36.89.36Z"/>
  <path d="M13.29,4.68c.23,0,.42-.08.57-.23.15-.15.22-.33.22-.53,0-.22-.08-.41-.23-.56s-.34-.23-.56-.23c-.21,0-.39.07-.55.22-.16.14-.24.34-.24.57,0,.18.07.35.21.52s.33.24.58.24Z"/>
  <path d="M11.39,2.68c.24,0,.43-.08.57-.25.14-.17.21-.35.21-.54,0-.21-.07-.39-.22-.55-.15-.16-.33-.24-.56-.24s-.4.08-.56.23-.23.34-.23.56c0,.2.07.38.22.55.15.16.34.24.57.24Z"/>
  <path d="M8.07,12.26c-.36,0-.65.12-.88.36-.23.24-.34.53-.34.86s.12.61.35.85c.24.25.53.37.87.37.32,0,.6-.12.84-.36s.36-.53.36-.86-.12-.63-.36-.87c-.24-.24-.52-.35-.84-.35Z"/>
  <path d="M11.39,12.03c-.22,0-.4.08-.56.23s-.23.34-.23.56c0,.2.07.38.21.55s.33.24.58.24c.2,0,.37-.07.54-.21s.24-.33.24-.58c0-.21-.07-.39-.22-.55-.15-.16-.33-.24-.56-.24Z"/>
  <path d="M14.97,6.51c-.23-.24-.52-.35-.87-.35s-.63.12-.87.36c-.24.24-.35.52-.35.84s.12.61.36.85c.24.24.53.36.86.36.29,0,.57-.1.83-.31.26-.21.39-.51.39-.9,0-.33-.12-.61-.35-.85Z"/>
  <path d="M4.74,12.03c-.24,0-.43.08-.58.25-.14.17-.21.35-.21.54,0,.22.07.4.22.56.15.16.34.23.57.23s.42-.08.57-.23c.15-.15.22-.34.22-.56s-.08-.4-.23-.56c-.16-.15-.34-.23-.56-.23Z"/>
  <path d="M13.29,10.03c-.18,0-.36.07-.53.2-.17.13-.26.33-.26.59,0,.2.07.38.22.54.15.16.34.24.57.24.22,0,.41-.08.56-.23.15-.15.23-.33.23-.55,0-.24-.08-.43-.24-.57-.16-.15-.34-.22-.55-.22Z"/>
  <path d="M8.07,11.79c1.22,0,2.26-.44,3.12-1.32.87-.88,1.3-1.91,1.3-3.11s-.44-2.26-1.32-3.12c-.88-.87-1.91-1.3-3.11-1.3-.83,0-1.59.21-2.26.62-.68.41-1.21.95-1.59,1.6-.38.66-.57,1.39-.57,2.21,0,1.23.43,2.27,1.29,3.13.86.86,1.91,1.29,3.13,1.29ZM8.06,11.2c-.21,0-.4-.08-.55-.23-.15-.15-.23-.34-.23-.55s.08-.4.23-.55c.15-.15.34-.23.55-.23s.4.08.55.23c.15.15.23.34.23.55s-.08.4-.23.55c-.15.15-.34.22-.55.22ZM8.06,7.98l-2.05,2.05-.6-.6,2.05-2.05-2.04-2.04.6-.61,2.05,2.05,2.05-2.05.6.61-2.05,2.04,2.05,2.05-.6.6-2.05-2.05ZM5.02,8.15c-.21,0-.4-.08-.55-.23-.15-.15-.23-.34-.23-.55s.08-.4.23-.55c.15-.15.34-.23.55-.23s.4.08.55.23c.15.15.23.34.23.55s-.08.4-.23.55c-.15.15-.34.23-.55.23ZM11.12,8.13c-.21,0-.4-.08-.55-.23-.15-.15-.23-.34-.23-.55s.08-.4.23-.55c.15-.15.34-.23.55-.23s.4.08.55.23.23.34.23.55-.08.4-.23.55c-.15.15-.34.23-.55.23ZM8.07,5.09c-.21,0-.4-.08-.55-.23-.15-.15-.23-.34-.23-.55s.08-.4.23-.55c.15-.15.34-.22.55-.22s.4.08.55.22c.15.15.23.34.23.55s-.08.4-.23.55c-.15.15-.34.22-.55.22Z"/>
</svg>