<?xml version="1.0" encoding="UTF-8"?>
<svg id="Layer_1" xmlns="http://www.w3.org/2000/svg" version="1.1" viewBox="0 0 128 128">
  <!-- Generator: Adobe Illustrator 30.2.1, SVG Export Plug-In . SVG Version: 2.1.1 Build 1)  -->
  <defs>
    <style>
      .st0 {
        fill: #1978b8;
      }
    </style>
  </defs>
  <path class="st0" d="M113.91,46.22L55.18,2.08c-2.64-1.99-6.34-1.74-8.7.58L13.51,35.13c-2.91,2.86-2.59,7.64.67,10.1l58.48,43.95c2.63,1.98,6.31,1.74,8.67-.55l33.23-32.28c2.94-2.86,2.64-7.66-.64-10.13ZM95.04,55.58l-16.31,16.15c-1.23,1.08-3.4.91-5.13-.38l-39.37-29.83c-2.14-1.61-2.71-4.27-1.2-5.62l16.31-16.1c1.22-1.09,3.41-.94,5.15.37l39.36,29.78c2.15,1.62,2.71,4.29,1.18,5.63Z"/>
  <path class="st0" d="M108.5,77.65l-29.76,29.6c-1.23,1.08-3.8,1.31-5.53.02l-54.17-41.05-5.52,4.44c-2.91,2.86-2.59,7.64.67,10.1l58.48,43.95c2.63,1.98,6.31,1.74,8.67-.55l33.23-32.28c2.94-2.86,2.64-7.66-.64-10.13l-5.42-4.1Z"/>
</svg>