<?xml version="1.0" encoding="UTF-8"?>
<svg id="Layer_1" xmlns="http://www.w3.org/2000/svg" version="1.1" viewBox="0 0 309 331">
  <!-- Generator: Adobe Illustrator 30.2.1, SVG Export Plug-In . SVG Version: 2.1.1 Build 1)  -->
  <defs>
    <style>
      .st0 {
        fill: #fff;
      }
    </style>
  </defs>
  <path class="st0" d="M299.54,144.77c-27.97-103.38-106.94-114.54-139.59-114.54-37.43,0-67.26,16.13-71.51,18.54L69.73-.44,8.57,144.85l126.88,27.59-19.73-51.9c2.85-3.01,34.61-35.34,82.91-35.34,62.17,0,99.63,59.35,100,59.95l1.8,2.91-.89-3.3Z"/>
  <path class="st0" d="M9.46,185.79c27.97,103.38,106.94,114.54,139.59,114.54,37.43,0,67.26-16.13,71.51-18.54l18.7,49.2,61.17-145.3-126.88-27.59,19.73,51.9c-2.85,3.01-34.61,35.34-82.91,35.34-62.17,0-99.63-59.35-100-59.95l-1.8-2.91.89,3.3Z"/>
</svg>