<?xml version="1.0" encoding="UTF-8"?>
<svg id="Layer_1" xmlns="http://www.w3.org/2000/svg" version="1.1" viewBox="0 0 96.8 96.7">
  <!-- Generator: Adobe Illustrator 30.3.0, SVG Export Plug-In . SVG Version: 2.1.3 Build 182)  -->
  <defs>
    <style>
      .st0 {
        fill: #fff;
      }

      .st1 {
        fill: #7b7b7b;
      }
    </style>
  </defs>
  <g id="Layer_2">
    <g id="Layer_11">
      <g id="dE4CDw">
        <g>
          <path class="st0" d="M84,96.7c6.9-.9,12-6.2,12.8-13V13.4c0-7.4-6.8-13.4-14-13.4H13C6.2.8.9,6.1,0,12.8v70.7c.2,6.7,6.5,13.1,13.2,13.1h70.8Z"/>
          <path class="st1" d="M84,96.7H13.2c-6.7,0-13-6.5-13-13.2V12.9C.8,6.1,6.2.8,13,0h69.8c7.2,0,13.9,6,13.9,13.4v70.4c-.7,6.8-5.8,12.1-12.7,13h0Z"/>
        </g>
      </g>
    </g>
  </g>
  <polygon class="st0" points="76 39.4 20.8 39.4 20.8 57.3 76 57.3 76 39.4"/>
</svg>