<?xml version="1.0" encoding="UTF-8"?>
<svg id="Layer_1" xmlns="http://www.w3.org/2000/svg" xmlns:xlink="http://www.w3.org/1999/xlink" version="1.1" viewBox="0 0 206.4 280">
  <!-- Generator: Adobe Illustrator 30.3.0, SVG Export Plug-In . SVG Version: 2.1.3 Build 182)  -->
  <defs>
    <style>
      .st0 {
        fill: url(#linear-gradient1);
      }

      .st1 {
        fill: #d1d3d4;
      }

      .st2, .st3, .st4 {
        fill: #231f20;
      }

      .st5 {
        fill: url(#linear-gradient);
      }

      .st6 {
        fill: #c9252c;
      }

      .st3, .st7 {
        stroke: #231f20;
      }

      .st8 {
        fill: #fff;
      }

      .st7 {
        fill: none;
      }

      .st7, .st4 {
        font-family: HelveticaNeueLTStd-BlkCn, 'Helvetica Neue LT Std';
        font-size: 115px;
      }
    </style>
    <linearGradient id="linear-gradient" x1=".5" y1="151.2" x2="180.5" y2="151.2" gradientUnits="userSpaceOnUse">
      <stop offset="0" stop-color="#595959"/>
      <stop offset=".5" stop-color="#fff"/>
      <stop offset=".9" stop-color="#595959"/>
    </linearGradient>
    <linearGradient id="linear-gradient1" x1="41.5" y1="279.5" x2="41.5" y2="279.5" gradientUnits="userSpaceOnUse">
      <stop offset="0" stop-color="#595959"/>
      <stop offset="0" stop-color="#7f7f7f"/>
      <stop offset=".2" stop-color="#b5b5b5"/>
      <stop offset=".3" stop-color="#ddd"/>
      <stop offset=".4" stop-color="#f6f6f6"/>
      <stop offset=".5" stop-color="#fff"/>
      <stop offset=".9" stop-color="#595959"/>
    </linearGradient>
  </defs>
  <text class="st7" transform="translate(14.6 185.4)"><tspan x="0" y="0">3</tspan></text>
  <g>
    <path class="st5" d="M.5,23v234c0,13.5,41,22.5,90,22.5s90-9,90-22.5V23H.5Z"/>
    <ellipse class="st1" cx="90.5" cy="23" rx="90" ry="22.5"/>
    <ellipse class="st2" cx="90.5" cy="23" rx="36" ry="9"/>
    <rect class="st8" x="90.5" y="45.5" width="115.4" height="234"/>
    <g>
      <path class="st2" d="M90.5,216.5l-35-20v13c-31,0-46-17-46-17v17s10,14,46,14v13l35-20Z"/>
      <path class="st3" d="M19.5,224.2"/>
      <path class="st6" d="M24.5,209.5"/>
    </g>
    <text class="st4" transform="translate(14.6 185.4)"><tspan x="0" y="0">3</tspan></text>
    <path class="st0" d="M41.5,279.5"/>
  </g>
</svg>