<?xml version="1.0" encoding="UTF-8"?>
<svg id="Layer_1" data-name="Layer 1" xmlns="http://www.w3.org/2000/svg" viewBox="0 0 16.17 14.74">
  <path d="M8.08.02L.73,7.37l7.35,7.35,7.35-7.35L8.08.02ZM2.75,7.37l5.33-5.33,5.33,5.33-5.33,5.33L2.75,7.37ZM10.49,5.76c0,.45-.25.92-.73,1.38l-.27.26c-.36.34-.53.67-.53,1.03v.53h-1.7v-.31c0-.48.22-.97.66-1.45l.28-.31c.33-.36.5-.69.5-.94,0-.22-.08-.31-.13-.35-.11-.08-.29-.13-.55-.13-.35,0-.78.11-1.26.33l-.37.17v-1.5l.19-.06c.55-.16,1.1-.25,1.62-.25.68,0,1.22.14,1.63.4.44.29.66.69.66,1.2ZM7.25,9.51h1.7v1.5h-1.7v-1.5Z"/>
</svg>