<?xml version="1.0" encoding="UTF-8"?>
<svg id="Layer_1" data-name="Layer 1" xmlns="http://www.w3.org/2000/svg" viewBox="0 0 16.17 14.74">
  <path d="M3.28,14.71c-.88,0-1.68-.33-2.31-.95-.63-.62-.97-1.43-.97-2.31s.34-1.7.98-2.33c.63-.62,1.42-.95,2.3-.95s1.68.33,2.31.95c.64.63.97,1.43.97,2.33s-.34,1.69-.97,2.31c-.63.62-1.43.95-2.31.95ZM12.89,14.71c-.88,0-1.68-.33-2.31-.95-.63-.62-.97-1.43-.97-2.31s.34-1.7.98-2.33c.63-.62,1.42-.95,2.3-.95s1.68.33,2.31.95c.64.63.97,1.43.97,2.33s-.34,1.69-.97,2.31c-.63.62-1.43.95-2.31.95ZM8.08,6.58c-.88,0-1.68-.33-2.31-.95-.63-.62-.97-1.43-.97-2.31s.34-1.7.98-2.33C6.41.36,7.2.03,8.08.03s1.68.33,2.31.95c.64.63.97,1.43.97,2.33s-.34,1.69-.97,2.31c-.63.62-1.43.95-2.31.95Z"/>
</svg>