<?xml version="1.0" encoding="UTF-8"?>
<svg id="Layer_1" data-name="Layer 1" xmlns="http://www.w3.org/2000/svg" viewBox="0 0 16.17 14.74">
  <path d="M8.07,9.46l-5.28,5.26-2.07-2.07,5.26-5.26L.73,2.13,2.79.05l5.27,5.27L13.34.05l2.06,2.08-5.27,5.26,5.28,5.26-2.07,2.07-5.26-5.26ZM8.07,14.72c-.48,0-.91-.18-1.25-.52-.35-.34-.53-.78-.53-1.26s.18-.93.53-1.27c.34-.34.78-.52,1.25-.52s.92.18,1.27.52c.35.34.53.78.53,1.26s-.19.92-.54,1.26c-.34.33-.78.51-1.26.51ZM2.53,9.17c-.48,0-.91-.18-1.25-.52-.35-.34-.53-.78-.53-1.26s.18-.93.53-1.27c.34-.34.77-.52,1.25-.52s.91.18,1.25.52c.35.34.53.78.53,1.27s-.18.92-.53,1.26c-.34.34-.78.52-1.25.52ZM13.66,9.12c-.48,0-.91-.18-1.25-.52s-.52-.78-.52-1.26.18-.91.52-1.25.77-.52,1.25-.52.92.18,1.26.52.52.77.52,1.25-.18.92-.52,1.26-.78.52-1.26.52ZM8.1,3.58c-.48,0-.91-.18-1.25-.52-.35-.34-.53-.78-.53-1.27s.18-.92.53-1.26C7.19.19,7.62.02,8.1.02s.92.18,1.26.51c.35.34.54.78.54,1.26s-.19.93-.54,1.27c-.34.33-.78.51-1.26.51Z"/>
</svg>